# xmcd
#
# Track frame offsets:
#	150
#	42174
#	96962
#	154863
#	199105
#	222601
#	254406
#	310873
#
# Disc length: 4543 seconds
#
# Revision: 0
# Processed by: cddbd v1.5.2PL0 Copyright (c) Steve Scherf et al.
# Submitted via: audiograbber 1.83.01
#
DISCID=7111bd08
DTITLE=Grateful Dead - 94-03-17 Rosemont Horizon, Rosemont IL
DYEAR=1900
DGENRE=
TTITLE0=Playing In The Band
TTITLE1=Uncle John's Band
TTITLE2=Drums
TTITLE3=Space
TTITLE4=The Wheel
TTITLE5=All Along The Watchtower
TTITLE6=Morning Dew
TTITLE7=Rain
EXTD=
EXTT0=
EXTT1=
EXTT2=
EXTT3=
EXTT4=
EXTT5=
EXTT6=
EXTT7=
PLAYORDER=
